<svg xmlns="http://www.w3.org/2000/svg" width="512" height="512" viewBox="0 0 256 256">
    <defs>
      <linearGradient id="bg" x1="0" y1="0" x2="1" y2="1"><stop stop-color="#eaf8df"/><stop offset="1" stop-color="#8fce68"/></linearGradient>
      <linearGradient id="hairGradient" x1="0" y1="0" x2="1" y2="1"><stop stop-color="#9ad86f"/><stop offset="1" stop-color="#69b84c"/></linearGradient>
      <linearGradient id="cloth" x1="0" y1="0" x2="0" y2="1"><stop stop-color="#f5b546"/><stop offset="1" stop-color="#26313d"/></linearGradient>
      <filter id="shadow"><feDropShadow dx="0" dy="5" stdDeviation="7" flood-opacity=".25"/></filter>
      <filter id="softShadow"><feDropShadow dx="0" dy="2" stdDeviation="2" flood-opacity=".25"/></filter>
      <clipPath id="round"><circle cx="128" cy="128" r="124"/></clipPath>
    </defs>
    <g clip-path="url(#round)">
      <rect width="256" height="256" fill="url(#bg)"/>
      <circle cx="42" cy="44" r="28" fill="#ffffff" opacity=".22"/><circle cx="220" cy="82" r="42" fill="#ffffff" opacity=".12"/>
      <g filter="url(#shadow)">
        <path d="M62 99 C54 52 86 25 128 25 C173 25 202 58 194 104 L211 217 C188 236 161 241 128 238 C95 241 68 236 45 217Z" fill="url(#hairGradient)"/>
        <path d="M71 116 C62 157 66 201 82 229" fill="none" stroke="#9ad86f" stroke-width="13" opacity=".55" stroke-linecap="round"/>
        <path d="M185 116 C194 157 190 201 174 229" fill="none" stroke="#9ad86f" stroke-width="13" opacity=".55" stroke-linecap="round"/>
        <path d="M34 256 C39 207 73 183 103 178 L153 178 C184 183 217 207 222 256Z" fill="url(#cloth)"/>
        <path d="M104 167 L152 167 L157 197 C144 211 112 211 99 197Z" fill="#f2cbb8"/>
        <path d="M96 181 Q128 211 160 181 L174 208 Q128 235 82 208Z" fill="#ef765b" opacity=".95"/>
        <ellipse cx="128" cy="111" rx="55" ry="67" fill="#f6d5c5"/>
        <ellipse cx="75" cy="117" rx="9" ry="15" fill="#efc4b2"/><ellipse cx="181" cy="117" rx="9" ry="15" fill="#efc4b2"/>
        <path d="M70 95 C73 50 98 36 128 36 C164 36 187 58 188 100
      C171 88 154 76 144 58 C141 83 128 98 113 108 C114 90 110 73 103 59 C98 81 86 98 70 110Z" fill="#9ad86f"/>
      <path d="M91 72 C103 58 116 52 128 51" fill="none" stroke="#ffffff" stroke-width="6" opacity=".35" stroke-linecap="round"/>
        <g>
          <path d="M91 115 Q102 105 114 114" fill="none" stroke="#5b4c4f" stroke-width="4" stroke-linecap="round"/>
          <path d="M142 114 Q154 105 166 115" fill="none" stroke="#5b4c4f" stroke-width="4" stroke-linecap="round"/>
          <ellipse cx="103" cy="121" rx="9" ry="12" fill="#ffffff"/><ellipse cx="154" cy="121" rx="9" ry="12" fill="#ffffff"/>
          <ellipse cx="103" cy="123" rx="5.5" ry="8" fill="#65a933"/><ellipse cx="154" cy="123" rx="5.5" ry="8" fill="#65a933"/>
          <circle cx="105" cy="120" r="2" fill="#ffffff"/><circle cx="156" cy="120" r="2" fill="#ffffff"/>
          <path d="M127 128 Q124 139 131 139" fill="none" stroke="#d49e8d" stroke-width="2" stroke-linecap="round"/>
          <path d="M113 151 Q128 160 143 151" fill="none" stroke="#b86168" stroke-width="3" stroke-linecap="round"/>
          <ellipse cx="91" cy="143" rx="12" ry="5" fill="#ef9b9b" opacity=".28"/><ellipse cx="165" cy="143" rx="12" ry="5" fill="#ef9b9b" opacity=".28"/>
        </g>
        <g transform="translate(0,-5)" filter="url(#softShadow)">
          <rect x="70" y="50" width="50" height="22" rx="10" fill="#4e5960" stroke="#f4a748" stroke-width="5"/>
          <rect x="136" y="50" width="50" height="22" rx="10" fill="#4e5960" stroke="#f4a748" stroke-width="5"/>
          <path d="M120 60 Q128 55 136 60" fill="none" stroke="#f4a748" stroke-width="5"/>
          <circle cx="95" cy="61" r="7" fill="#9ee7e0" opacity=".8"/><circle cx="161" cy="61" r="7" fill="#9ee7e0" opacity=".8"/>
        </g>
      </g>
      <circle cx="128" cy="128" r="123" fill="none" stroke="#ffffff" stroke-width="6" opacity=".75"/>
    </g>
    </svg>